<svg width="23" height="23" viewBox="0 0 23 23" fill="none" xmlns="http://www.w3.org/2000/svg">
<path d="M9.20867 8.09422L7.14617 14.5292C7.13393 14.565 7.13035 14.6031 7.13573 14.6405C7.1411 14.678 7.15528 14.7136 7.17709 14.7444C7.1989 14.7753 7.22772 14.8006 7.26119 14.8181C7.29466 14.8357 7.33181 14.8451 7.36961 14.8455H7.94711C7.99865 14.8453 8.04877 14.8285 8.08997 14.7975C8.13116 14.7665 8.16124 14.7231 8.1757 14.6736L8.49883 13.6423H11.3227L11.2832 13.5787L11.6373 14.6736C11.6517 14.7231 11.6818 14.7665 11.723 14.7975C11.7642 14.8285 11.8143 14.8453 11.8659 14.8455H12.4434C12.4812 14.8457 12.5185 14.8369 12.5523 14.8199C12.5861 14.8029 12.6153 14.7781 12.6377 14.7475C12.66 14.717 12.6747 14.6816 12.6807 14.6442C12.6866 14.6069 12.6837 14.5686 12.672 14.5327L10.6095 8.09766C10.5947 8.04832 10.5646 8.00501 10.5235 7.97407C10.4823 7.94314 10.4323 7.92621 10.3809 7.92578H9.43211C9.38189 7.9268 9.33326 7.94363 9.29315 7.97387C9.25304 8.0041 9.22348 8.04622 9.20867 8.09422ZM8.84258 12.6111L9.90648 9.29906L10.979 12.6111H8.84258Z" fill="#393939"/>
<path d="M15.0353 7.92773H14.4853C14.3524 7.92773 14.2446 8.03547 14.2446 8.16836V14.6034C14.2446 14.7363 14.3524 14.844 14.4853 14.844H15.0353C15.1681 14.844 15.2759 14.7363 15.2759 14.6034V8.16836C15.2759 8.03547 15.1681 7.92773 15.0353 7.92773Z" fill="#393939"/>
<path d="M12.2268 17.4238H7.22525C6.85329 17.4238 6.49656 17.2761 6.23354 17.0131C5.97052 16.75 5.82275 16.3933 5.82275 16.0213V7.13883C5.82275 6.76687 5.97052 6.41013 6.23354 6.14711C6.49656 5.8841 6.85329 5.73633 7.22525 5.73633H16.1078C16.4797 5.73633 16.8365 5.8841 17.0995 6.14711C17.3625 6.41013 17.5103 6.76687 17.5103 7.13883V11.5801C17.5134 11.6738 17.5535 11.7626 17.6217 11.827C17.6899 11.8913 17.7808 11.9262 17.8746 11.9238C18.1673 11.9229 18.4562 11.99 18.7185 12.1198C18.773 12.1477 18.8338 12.1611 18.8949 12.1585C18.9561 12.156 19.0155 12.1376 19.0675 12.1052C19.1194 12.0728 19.1621 12.0276 19.1913 11.9738C19.2205 11.92 19.2353 11.8596 19.2342 11.7984V7.13883C19.2342 6.72851 19.1533 6.32221 18.9961 5.94319C18.8389 5.56417 18.6085 5.21985 18.3181 4.92995C18.0278 4.64005 17.6831 4.41025 17.3038 4.25369C16.9245 4.09714 16.5181 4.0169 16.1078 4.01758H7.22525C6.39745 4.01758 5.60355 4.34643 5.0182 4.93178C4.43285 5.51712 4.104 6.31103 4.104 7.13883V16.0213C4.104 16.8491 4.43285 17.643 5.0182 18.2284C5.60355 18.8137 6.39745 19.1426 7.22525 19.1426H12.9487C13.019 19.1427 13.0878 19.1219 13.1463 19.0829C13.2049 19.044 13.2505 18.9885 13.2776 18.9236C13.3046 18.8587 13.3118 18.7872 13.2982 18.7182C13.2847 18.6492 13.251 18.5857 13.2013 18.5359C12.9339 18.2905 12.7173 17.995 12.5637 17.6662C12.5391 17.5962 12.4936 17.5354 12.4333 17.4921C12.3731 17.4487 12.301 17.4249 12.2268 17.4238Z" fill="#393939"/>
<path d="M19.8701 18.0769L21.4273 17.4633C21.4594 17.4506 21.4869 17.4286 21.5062 17.4001C21.5256 17.3716 21.536 17.3379 21.536 17.3034C21.536 17.269 21.5256 17.2353 21.5062 17.2068C21.4869 17.1783 21.4594 17.1563 21.4273 17.1436L19.8701 16.53C19.5945 16.421 19.3441 16.2566 19.1345 16.047C18.9249 15.8374 18.7605 15.5871 18.6515 15.3114L18.0379 13.7645C18.0252 13.7326 18.0031 13.7051 17.9746 13.6858C17.9461 13.6665 17.9125 13.6562 17.8781 13.6563C17.8437 13.6562 17.81 13.6665 17.7815 13.6858C17.753 13.7051 17.731 13.7326 17.7182 13.7645L17.1046 15.3114C16.9959 15.5872 16.8316 15.8377 16.622 16.0474C16.4124 16.257 16.1619 16.4213 15.886 16.53L14.3392 17.1436C14.3071 17.1563 14.2796 17.1783 14.2602 17.2068C14.2408 17.2353 14.2305 17.269 14.2305 17.3034C14.2305 17.3379 14.2408 17.3716 14.2602 17.4001C14.2796 17.4286 14.3071 17.4506 14.3392 17.4633L15.886 18.0769C16.1619 18.1856 16.4124 18.3499 16.622 18.5595C16.8316 18.7692 16.9959 19.0197 17.1046 19.2955L17.7182 20.8423C17.7307 20.8746 17.7526 20.9024 17.7811 20.9221C17.8097 20.9417 17.8435 20.9522 17.8781 20.9523C17.9127 20.9522 17.9465 20.9417 17.975 20.9221C18.0035 20.9024 18.0255 20.8746 18.0379 20.8423L18.6515 19.2955C18.7605 19.0198 18.9249 18.7694 19.1345 18.5598C19.3441 18.3502 19.5945 18.1859 19.8701 18.0769Z" fill="#393939"/>
</svg>
