<svg width="29" height="29" viewBox="0 0 29 29" fill="none" xmlns="http://www.w3.org/2000/svg">
<path d="M22.9965 0.376953H6.31062C3.18551 0.376953 0.655334 2.90712 0.655334 6.03224V22.7217C0.655334 25.8433 3.18551 28.3734 6.31062 28.3734H23C26.1217 28.3734 28.6553 25.8433 28.6553 22.7182V6.03224C28.6518 2.90712 26.1217 0.376953 22.9965 0.376953Z" fill="url(#paint0_linear_25_30)"/>
<path d="M14.5346 6.80918L15.1016 5.82929C15.4515 5.21685 16.2319 5.0104 16.8443 5.36035C17.4568 5.71029 17.6632 6.49068 17.3133 7.10313L11.8504 16.559H15.8014C17.0823 16.559 17.7997 18.0638 17.2433 19.1066H5.65976C4.95287 19.1066 4.38593 18.5397 4.38593 17.8328C4.38593 17.1259 4.95287 16.559 5.65976 16.559H8.90738L13.0649 9.35335L11.7666 7.09963C11.4166 6.48718 11.6231 5.71379 12.2355 5.35685C12.8479 5.0069 13.6213 5.21335 13.9783 5.82579L14.5346 6.80918ZM9.62127 20.419L8.39643 22.5432C8.04649 23.1557 7.2661 23.3621 6.65365 23.0122C6.04121 22.6622 5.83476 21.8818 6.18471 21.2694L7.0946 19.6946C8.12343 19.3761 8.95982 19.6211 9.62127 20.419Z" fill="white"/>
<path d="M20.1689 16.5659H23.4829C24.1898 16.5659 24.7568 17.1328 24.7568 17.8397C24.7568 18.5466 24.1898 19.1136 23.4829 19.1136H21.6422L22.8845 21.2693C23.2344 21.8817 23.028 22.6551 22.4156 23.0121C21.8031 23.362 21.0297 23.1556 20.6728 22.5431C18.58 18.9141 17.0087 16.1985 15.9659 14.3892C14.8985 12.5484 15.6614 10.7006 16.4138 10.0742C17.2503 11.5091 18.4996 13.6753 20.1689 16.5659Z" fill="white"/>
<defs>
<linearGradient id="paint0_linear_25_30" x1="14.6553" y1="0.376953" x2="14.6553" y2="28.3734" gradientUnits="userSpaceOnUse">
<stop stop-color="#00BFFC"/>
<stop offset="1" stop-color="#0073F6"/>
</linearGradient>
</defs>
</svg>
