<svg width="43" height="44" viewBox="0 0 43 44" fill="none" xmlns="http://www.w3.org/2000/svg">
<path d="M29.5491 25.213C29.5595 25.5072 29.6836 25.7858 29.8954 25.9902C30.1071 26.1946 30.39 26.3088 30.6843 26.3088C30.9786 26.3088 31.2614 26.1946 31.4732 25.9902C31.685 25.7858 31.8091 25.5072 31.8195 25.213L31.8195 15.5747C31.8193 15.2737 31.6996 14.985 31.4868 14.7722C31.2739 14.5593 30.9853 14.4397 30.6843 14.4395L21.0459 14.4395C20.7518 14.4499 20.4732 14.574 20.2688 14.7858C20.0644 14.9975 19.9501 15.2803 19.9501 15.5747C19.9501 15.869 20.0644 16.1518 20.2688 16.3636C20.4732 16.5753 20.7518 16.6995 21.0459 16.7098L27.9427 16.7098L21.3137 23.3389C19.6805 24.9721 17.4655 25.8895 15.1558 25.8895C12.8462 25.8896 10.6312 24.9721 8.998 23.3389C8.78498 23.1259 8.49606 23.0062 8.1948 23.0062C7.89355 23.0062 7.60463 23.1259 7.39161 23.3389C7.17859 23.5519 7.05891 23.8408 7.05891 24.1421C7.05891 24.4433 7.17858 24.7323 7.39161 24.9453C9.45081 27.0045 12.2437 28.1613 15.1558 28.1613C18.068 28.1613 20.8609 27.0045 22.9201 24.9453L29.5491 18.3162L29.5491 25.213Z" fill="white"/>
</svg>
