<svg width="389" height="611" viewBox="0 0 389 611" fill="none" xmlns="http://www.w3.org/2000/svg">
<rect x="1.05765" y="1.59961" width="386.521" height="608.9" rx="14.5" fill="url(#paint0_linear_213_13)" stroke="url(#paint1_linear_213_13)"/>
<path d="M49.5102 1.09961H30.5142V20.273M49.5102 1.09961V20.273H68.5073M49.5102 1.09961H68.5073M30.5142 20.273H49.5113V39.4464V58.6197V77.7931V96.9665V116.14V135.313V154.487V173.66V192.833V212.007V231.18H68.5073M30.5142 20.273V39.4464M68.5073 1.09961V20.273M68.5073 1.09961H87.5034M68.5073 20.273H87.5044M68.5073 20.273L68.5084 39.4464M30.5142 39.4464H49.5102H68.5084M30.5142 39.4464V58.6197M87.5034 1.09961L87.5044 20.273M87.5034 1.09961H106.502M87.5044 20.273H106.5M87.5044 20.273V39.4464M68.5084 39.4464H87.5044M68.5084 39.4464L68.5073 58.6197M106.502 1.09961L106.5 20.273M106.502 1.09961H125.497M106.5 20.273H125.498M106.5 20.273L106.502 39.4464M87.5044 39.4464H106.502M87.5044 39.4464V58.6197M125.497 1.09961L125.498 20.273M125.497 1.09961H144.496M125.498 20.273H144.495M125.498 20.273V39.4464M106.502 39.4464H125.498M106.502 39.4464L106.5 58.6197M144.496 1.09961L144.495 20.273M144.496 1.09961H163.491M144.495 20.273H163.491M144.495 20.273V39.4464M125.498 39.4464H144.495M125.498 39.4464V58.6197M163.491 1.09961V20.273M163.491 1.09961H182.488M163.491 20.273H182.488M163.491 20.273V39.4464M144.495 39.4464H163.491M144.495 39.4464V58.6197M182.488 1.09961V20.273M182.488 1.09961H201.484M182.488 20.273H201.484M182.488 20.273V39.4464M163.491 39.4464H182.488M163.491 39.4464V58.6197M201.484 1.09961V20.273M201.484 1.09961H220.481M201.484 20.273H220.481M201.484 20.273V39.4464M182.488 39.4464H201.484M182.488 39.4464V58.6197M220.481 1.09961V20.273M220.481 1.09961H239.477M220.481 20.273H239.477M220.481 20.273V39.4464M201.484 39.4464H220.481M201.484 39.4464V58.6197M239.477 1.09961V20.273M239.477 1.09961H258.474M239.477 20.273H258.474M239.477 20.273V39.4464M220.481 39.4464H239.477M220.481 39.4464V58.6197M258.474 1.09961V20.273M258.474 1.09961H277.471M258.474 20.273H277.471M258.474 20.273V39.4464M239.477 39.4464H258.474M239.477 39.4464V58.6197M277.471 1.09961V20.273M277.471 1.09961H296.467M277.471 20.273H296.467M277.471 20.273V39.4464M258.474 39.4464H277.471M258.474 39.4464V58.6197M296.467 1.09961V20.273M296.467 1.09961H315.464M296.467 20.273H315.464M296.467 20.273V39.4464M277.471 39.4464H296.467M277.471 39.4464V58.6197M315.464 1.09961V20.273M315.464 1.09961H334.46M315.464 20.273H334.46M315.464 20.273V39.4464M296.467 39.4464H315.464M296.467 39.4464V58.6197M334.46 1.09961V20.273M334.46 1.09961H353.457V20.273M334.46 20.273H353.457M334.46 20.273V39.4464M315.464 39.4464H334.46M315.464 39.4464V58.6197M353.457 20.273V39.4464M334.46 39.4464H353.457M334.46 39.4464V58.6197M353.457 39.4464V58.6197M30.5142 58.6197H49.5102H68.5073M30.5142 58.6197V77.7931M68.5073 58.6197H87.5044M68.5073 58.6197V77.7931M87.5044 58.6197H106.5M87.5044 58.6197V77.7931M106.5 58.6197H125.498M106.5 58.6197V77.7931M125.498 58.6197H144.495M125.498 58.6197V77.7931M144.495 58.6197H163.491M144.495 58.6197V77.7931M163.491 58.6197H182.488M163.491 58.6197V77.7931M182.488 58.6197H201.484M182.488 58.6197V77.7931M201.484 58.6197H220.481M201.484 58.6197V77.7931M220.481 58.6197H239.477M220.481 58.6197V77.7931M239.477 58.6197H258.474M239.477 58.6197V77.7931M258.474 58.6197H277.471M258.474 58.6197V77.7931M277.471 58.6197H296.467M277.471 58.6197V77.7931M296.467 58.6197H315.464M296.467 58.6197V77.7931M315.464 58.6197H334.46M315.464 58.6197V77.7931M334.46 58.6197H353.457M334.46 58.6197V77.7931M353.457 58.6197V77.7931M30.5142 77.7931H49.5102H68.5073M30.5142 77.7931V96.9665M68.5073 77.7931H87.5044M68.5073 77.7931V96.9665M87.5044 77.7931H106.5M87.5044 77.7931V96.9665M106.5 77.7931H125.498M106.5 77.7931V96.9665M125.498 77.7931H144.495M125.498 77.7931V96.9665M144.495 77.7931H163.491M144.495 77.7931V96.9665M163.491 77.7931H182.488M163.491 77.7931V96.9665M182.488 77.7931H201.484M182.488 77.7931V96.9665M201.484 77.7931H220.481M201.484 77.7931V96.9665M220.481 77.7931H239.477M220.481 77.7931V96.9665M239.477 77.7931H258.474M239.477 77.7931V96.9665M258.474 77.7931H277.471M258.474 77.7931V96.9665M277.471 77.7931H296.467M277.471 77.7931V96.9665M296.467 77.7931H315.464M296.467 77.7931V96.9665M315.464 77.7931H334.46M315.464 77.7931V96.9665M334.46 77.7931H353.457M334.46 77.7931V96.9665M353.457 77.7931V96.9665M30.5142 96.9665H49.5102H68.5073M30.5142 96.9665V116.14M68.5073 96.9665H87.5044M68.5073 96.9665V116.14M87.5044 96.9665H106.5M87.5044 96.9665V116.14M106.5 96.9665H125.498M106.5 96.9665V116.14M125.498 96.9665H144.495M125.498 96.9665V116.14M144.495 96.9665H163.491M144.495 96.9665V116.14M163.491 96.9665H182.488M163.491 96.9665V116.14M182.488 96.9665H201.484M182.488 96.9665V116.14M201.484 96.9665H220.481M201.484 96.9665V116.14M220.481 96.9665H239.477M220.481 96.9665V116.14M239.477 96.9665H258.474M239.477 96.9665V116.14M258.474 96.9665H277.471M258.474 96.9665V116.14M277.471 96.9665H296.467M277.471 96.9665V116.14M296.467 96.9665H315.464M296.467 96.9665V116.14M315.464 96.9665H334.46M315.464 96.9665V116.14M334.46 96.9665H353.457M334.46 96.9665V116.14M353.457 96.9665V116.14M30.5142 116.14H49.5102H68.5073M30.5142 116.14V135.313M68.5073 116.14H87.5044M68.5073 116.14V135.313M87.5044 116.14H106.5M87.5044 116.14V135.313M106.5 116.14H125.498M106.5 116.14V135.313M125.498 116.14H144.495M125.498 116.14V135.313M144.495 116.14H163.491M144.495 116.14V135.313M163.491 116.14H182.488M163.491 116.14V135.313M182.488 116.14H201.484M182.488 116.14V135.313M201.484 116.14H220.481M201.484 116.14V135.313M220.481 116.14H239.477M220.481 116.14V135.313M239.477 116.14H258.474M239.477 116.14V135.313M258.474 116.14H277.471M258.474 116.14V135.313M277.471 116.14H296.467M277.471 116.14V135.313M296.467 116.14H315.464M296.467 116.14V135.313M315.464 116.14H334.46M315.464 116.14V135.313M334.46 116.14H353.457M334.46 116.14V135.313M353.457 116.14V135.313M30.5142 135.313H49.5102H68.5073M30.5142 135.313V154.487M68.5073 135.313H87.5044M68.5073 135.313V154.487M87.5044 135.313H106.5M87.5044 135.313V154.487M106.5 135.313H125.498M106.5 135.313V154.487M125.498 135.313H144.495M125.498 135.313V154.487M144.495 135.313H163.491M144.495 135.313V154.487M163.491 135.313H182.488M163.491 135.313V154.487M182.488 135.313H201.484M182.488 135.313V154.487M201.484 135.313H220.481M201.484 135.313V154.487M220.481 135.313H239.477M220.481 135.313V154.487M239.477 135.313H258.474M239.477 135.313V154.487M258.474 135.313H277.471M258.474 135.313V154.487M277.471 135.313H296.467M277.471 135.313V154.487M296.467 135.313H315.464M296.467 135.313V154.487M315.464 135.313H334.46M315.464 135.313V154.487M334.46 135.313H353.457M334.46 135.313V154.487M353.457 135.313V154.487M30.5142 154.487H49.5102H68.5073M30.5142 154.487V173.66M68.5073 154.487H87.5044M68.5073 154.487V173.66M87.5044 154.487H106.5M87.5044 154.487V173.66M106.5 154.487H125.498M106.5 154.487V173.66M125.498 154.487H144.495M125.498 154.487V173.66M144.495 154.487H163.491M144.495 154.487V173.66M163.491 154.487H182.488M163.491 154.487V173.66M182.488 154.487H201.484M182.488 154.487V173.66M201.484 154.487H220.481M201.484 154.487V173.66M220.481 154.487H239.477M220.481 154.487V173.66M239.477 154.487H258.474M239.477 154.487V173.66M258.474 154.487H277.471M258.474 154.487V173.66M277.471 154.487H296.467M277.471 154.487V173.66M296.467 154.487H315.464M296.467 154.487V173.66M315.464 154.487H334.46M315.464 154.487V173.66M334.46 154.487H353.457M334.46 154.487V173.66M353.457 154.487V173.66M30.5142 173.66H49.5102H68.5073M30.5142 173.66V192.833M68.5073 173.66H87.5044M68.5073 173.66V192.833M87.5044 173.66H106.5M87.5044 173.66V192.833M106.5 173.66H125.498M106.5 173.66V192.833M125.498 173.66H144.495M125.498 173.66V192.833M144.495 173.66H163.491M144.495 173.66V192.833M163.491 173.66H182.488M163.491 173.66V192.833M182.488 173.66H201.484M182.488 173.66V192.833M201.484 173.66H220.481M201.484 173.66V192.833M220.481 173.66H239.477M220.481 173.66V192.833M239.477 173.66H258.474M239.477 173.66V192.833M258.474 173.66H277.471M258.474 173.66V192.833M277.471 173.66H296.467M277.471 173.66V192.833M296.467 173.66H315.464M296.467 173.66V192.833M315.464 173.66H334.46M315.464 173.66V192.833M334.46 173.66H353.457M334.46 173.66V192.833M353.457 173.66V192.833M30.5142 192.833H49.5102H68.5073M30.5142 192.833V212.007M68.5073 192.833H87.5044M68.5073 192.833V212.007M87.5044 192.833H106.5M87.5044 192.833V212.007M106.5 192.833H125.498M106.5 192.833V212.007M125.498 192.833H144.495M125.498 192.833V212.007M144.495 192.833H163.491M144.495 192.833V212.007M163.491 192.833H182.488M163.491 192.833V212.007M182.488 192.833H201.484M182.488 192.833V212.007M201.484 192.833H220.481M201.484 192.833V212.007M220.481 192.833H239.477M220.481 192.833V212.007M239.477 192.833H258.474M239.477 192.833V212.007M258.474 192.833H277.471M258.474 192.833V212.007M277.471 192.833H296.467M277.471 192.833V212.007M296.467 192.833H315.464M296.467 192.833V212.007M315.464 192.833H334.46M315.464 192.833V212.007M334.46 192.833H353.457M334.46 192.833V212.007M353.457 192.833V212.007M30.5142 212.007H49.5102H68.5073M30.5142 212.007V231.18H49.5102M68.5073 212.007H87.5044M68.5073 212.007V231.18M87.5044 212.007H106.5M87.5044 212.007V231.18M106.5 212.007H125.498M106.5 212.007V231.18M125.498 212.007H144.495M125.498 212.007V231.18M144.495 212.007H163.491M144.495 212.007V231.18M163.491 212.007H182.488M163.491 212.007V231.18M182.488 212.007H201.484M182.488 212.007V231.18M201.484 212.007H220.481M201.484 212.007V231.18M220.481 212.007H239.477M220.481 212.007V231.18M239.477 212.007H258.474M239.477 212.007V231.18M258.474 212.007H277.471M258.474 212.007V231.18M277.471 212.007H296.467M277.471 212.007V231.18M296.467 212.007H315.464M296.467 212.007V231.18M315.464 212.007H334.46M315.464 212.007V231.18M334.46 212.007H353.457M334.46 212.007V231.18M353.457 212.007V231.18H334.46M68.5073 231.18H87.5044M87.5044 231.18H106.5M106.5 231.18H125.498M125.498 231.18H144.495M144.495 231.18H163.491M163.491 231.18H182.488M182.488 231.18H201.484M201.484 231.18H220.481M220.481 231.18H239.477M239.477 231.18H258.474M258.474 231.18H277.471M277.471 231.18H296.467M296.467 231.18H315.464M315.464 231.18H334.46" stroke="url(#paint2_radial_213_13)"/>
<defs>
<linearGradient id="paint0_linear_213_13" x1="194.318" y1="1.09961" x2="194.318" y2="611" gradientUnits="userSpaceOnUse">
<stop stop-color="#FFFDF5"/>
<stop offset="1" stop-color="white" stop-opacity="0"/>
</linearGradient>
<linearGradient id="paint1_linear_213_13" x1="194.318" y1="1.09961" x2="194.318" y2="611" gradientUnits="userSpaceOnUse">
<stop stop-color="#FFE0C0"/>
<stop offset="1" stop-color="white"/>
</linearGradient>
<radialGradient id="paint2_radial_213_13" cx="0" cy="0" r="1" gradientUnits="userSpaceOnUse" gradientTransform="translate(191.986 -109.147) rotate(90) scale(354.707 276.309)">
<stop stop-color="#FFE0C0"/>
<stop offset="0.804" stop-color="#FFA549" stop-opacity="0"/>
</radialGradient>
</defs>
</svg>
