<svg width="359" height="640" viewBox="0 0 359 640" fill="none" xmlns="http://www.w3.org/2000/svg">
<rect x="0.5" y="1.42773" width="357.057" height="637.072" rx="19.5" fill="url(#paint0_linear_214_23)" stroke="url(#paint1_linear_214_23)"/>
<path d="M296.295 639L311 639L311 623.914M296.295 639L296.295 623.914L281.588 623.914M296.295 639L281.588 639M311 623.914L296.294 623.914L296.294 608.828L296.294 593.741L296.294 578.655L296.294 563.569L296.294 548.483L296.294 533.397L296.294 518.31L296.294 503.224L296.294 488.138L296.294 473.052L296.294 457.965L281.588 457.965M311 623.914L311 608.828M281.588 639L281.588 623.914M281.588 639L266.883 639M281.588 623.914L266.882 623.914M281.588 623.914L281.588 608.828M311 608.828L296.295 608.828L281.588 608.828M311 608.828L311 593.741M266.883 639L266.882 623.914M266.883 639L252.176 639M266.882 623.914L252.177 623.914M266.882 623.914L266.882 608.828M281.588 608.828L266.882 608.828M281.588 608.828L281.588 593.741M252.176 639L252.177 623.914M252.176 639L237.471 639M252.177 623.914L237.471 623.914M252.177 623.914L252.176 608.828M266.882 608.828L252.176 608.828M266.882 608.828L266.882 593.741M237.471 639L237.471 623.914M237.471 639L222.764 639M237.471 623.914L222.764 623.914M237.471 623.914L237.471 608.828M252.176 608.828L237.471 608.828M252.176 608.828L252.177 593.741M222.764 639L222.764 623.914M222.764 639L208.059 639M222.764 623.914L208.059 623.914M222.764 623.914L222.764 608.828M237.471 608.828L222.764 608.828M237.471 608.828L237.471 593.741M208.059 639L208.059 623.914M208.059 639L193.353 639M208.059 623.914L193.353 623.914M208.059 623.914L208.059 608.828M222.764 608.828L208.059 608.828M222.764 608.828L222.764 593.741M193.353 639L193.353 623.914M193.353 639L178.647 639M193.353 623.914L178.647 623.914M193.353 623.914L193.353 608.828M208.059 608.828L193.353 608.828M208.059 608.828L208.059 593.741M178.647 639L178.647 623.914M178.647 639L163.941 639M178.647 623.914L163.941 623.914M178.647 623.914L178.647 608.828M193.353 608.828L178.647 608.828M193.353 608.828L193.353 593.741M163.941 639L163.941 623.914M163.941 639L149.236 639M163.941 623.914L149.236 623.914M163.941 623.914L163.941 608.828M178.647 608.828L163.941 608.828M178.647 608.828L178.647 593.741M149.236 639L149.236 623.914M149.236 639L134.529 639M149.236 623.914L134.529 623.914M149.236 623.914L149.236 608.828M163.941 608.828L149.236 608.828M163.941 608.828L163.941 593.741M134.529 639L134.529 623.914M134.529 639L119.823 639M134.529 623.914L119.823 623.914M134.529 623.914L134.529 608.828M149.236 608.828L134.529 608.828M149.236 608.828L149.236 593.741M119.823 639L119.823 623.914M119.823 639L105.118 639M119.823 623.914L105.118 623.914M119.823 623.914L119.823 608.828M134.529 608.828L119.823 608.828M134.529 608.828L134.529 593.741M105.118 639L105.118 623.914M105.118 639L90.4116 639M105.118 623.914L90.4116 623.914M105.118 623.914L105.118 608.828M119.823 608.828L105.118 608.828M119.823 608.828L119.823 593.741M90.4116 639L90.4116 623.914M90.4116 639L75.7062 639M90.4116 623.914L75.7062 623.914M90.4116 623.914L90.4116 608.828M105.118 608.828L90.4116 608.828M105.118 608.828L105.118 593.741M75.7062 639L75.7062 623.914M75.7062 639L61 639L61 623.914M75.7062 623.914L61 623.914M75.7062 623.914L75.7062 608.828M90.4116 608.828L75.7062 608.828M90.4116 608.828L90.4116 593.741M61 623.914L61 608.828M75.7062 608.828L61 608.828M75.7062 608.828L75.7062 593.741M61 608.828L61 593.741M311 593.741L296.295 593.741L281.588 593.741M311 593.741L311 578.655M281.588 593.741L266.882 593.741M281.588 593.741L281.588 578.655M266.882 593.741L252.177 593.741M266.882 593.741L266.882 578.655M252.177 593.741L237.471 593.741M252.177 593.741L252.177 578.655M237.471 593.741L222.764 593.741M237.471 593.741L237.471 578.655M222.764 593.741L208.059 593.741M222.764 593.741L222.764 578.655M208.059 593.741L193.353 593.741M208.059 593.741L208.059 578.655M193.353 593.741L178.647 593.741M193.353 593.741L193.353 578.655M178.647 593.741L163.941 593.741M178.647 593.741L178.647 578.655M163.941 593.741L149.236 593.741M163.941 593.741L163.941 578.655M149.236 593.741L134.529 593.741M149.236 593.741L149.236 578.655M134.529 593.741L119.823 593.741M134.529 593.741L134.529 578.655M119.823 593.741L105.118 593.741M119.823 593.741L119.823 578.655M105.118 593.741L90.4116 593.741M105.118 593.741L105.118 578.655M90.4116 593.741L75.7062 593.741M90.4116 593.741L90.4116 578.655M75.7062 593.741L61 593.741M75.7062 593.741L75.7062 578.655M61 593.741L61 578.655M311 578.655L296.295 578.655L281.588 578.655M311 578.655L311 563.569M281.588 578.655L266.882 578.655M281.588 578.655L281.588 563.569M266.882 578.655L252.177 578.655M266.882 578.655L266.882 563.569M252.177 578.655L237.471 578.655M252.177 578.655L252.177 563.569M237.471 578.655L222.764 578.655M237.471 578.655L237.471 563.569M222.764 578.655L208.059 578.655M222.764 578.655L222.764 563.569M208.059 578.655L193.353 578.655M208.059 578.655L208.059 563.569M193.353 578.655L178.647 578.655M193.353 578.655L193.353 563.569M178.647 578.655L163.941 578.655M178.647 578.655L178.647 563.569M163.941 578.655L149.236 578.655M163.941 578.655L163.941 563.569M149.236 578.655L134.529 578.655M149.236 578.655L149.236 563.569M134.529 578.655L119.823 578.655M134.529 578.655L134.529 563.569M119.823 578.655L105.118 578.655M119.823 578.655L119.823 563.569M105.118 578.655L90.4116 578.655M105.118 578.655L105.118 563.569M90.4116 578.655L75.7062 578.655M90.4116 578.655L90.4116 563.569M75.7062 578.655L61 578.655M75.7062 578.655L75.7062 563.569M61 578.655L61 563.569M311 563.569L296.295 563.569L281.588 563.569M311 563.569L311 548.483M281.588 563.569L266.882 563.569M281.588 563.569L281.588 548.483M266.882 563.569L252.177 563.569M266.882 563.569L266.882 548.483M252.177 563.569L237.471 563.569M252.177 563.569L252.177 548.483M237.471 563.569L222.764 563.569M237.471 563.569L237.471 548.483M222.764 563.569L208.059 563.569M222.764 563.569L222.764 548.483M208.059 563.569L193.353 563.569M208.059 563.569L208.059 548.483M193.353 563.569L178.647 563.569M193.353 563.569L193.353 548.483M178.647 563.569L163.941 563.569M178.647 563.569L178.647 548.483M163.941 563.569L149.236 563.569M163.941 563.569L163.941 548.483M149.236 563.569L134.529 563.569M149.236 563.569L149.236 548.483M134.529 563.569L119.823 563.569M134.529 563.569L134.529 548.483M119.823 563.569L105.118 563.569M119.823 563.569L119.823 548.483M105.118 563.569L90.4116 563.569M105.118 563.569L105.118 548.483M90.4116 563.569L75.7062 563.569M90.4116 563.569L90.4116 548.483M75.7062 563.569L61 563.569M75.7062 563.569L75.7062 548.483M61 563.569L61 548.483M311 548.483L296.295 548.483L281.588 548.483M311 548.483L311 533.397M281.588 548.483L266.882 548.483M281.588 548.483L281.588 533.397M266.882 548.483L252.177 548.483M266.882 548.483L266.882 533.397M252.177 548.483L237.471 548.483M252.177 548.483L252.177 533.397M237.471 548.483L222.764 548.483M237.471 548.483L237.471 533.397M222.764 548.483L208.059 548.483M222.764 548.483L222.764 533.397M208.059 548.483L193.353 548.483M208.059 548.483L208.059 533.397M193.353 548.483L178.647 548.483M193.353 548.483L193.353 533.397M178.647 548.483L163.941 548.483M178.647 548.483L178.647 533.397M163.941 548.483L149.236 548.483M163.941 548.483L163.941 533.397M149.236 548.483L134.529 548.483M149.236 548.483L149.236 533.397M134.529 548.483L119.823 548.483M134.529 548.483L134.529 533.397M119.823 548.483L105.118 548.483M119.823 548.483L119.823 533.397M105.118 548.483L90.4116 548.483M105.118 548.483L105.118 533.397M90.4116 548.483L75.7062 548.483M90.4116 548.483L90.4116 533.397M75.7062 548.483L61 548.483M75.7062 548.483L75.7062 533.397M61 548.483L61 533.396M311 533.397L296.295 533.397L281.588 533.397M311 533.397L311 518.31M281.588 533.397L266.882 533.397M281.588 533.397L281.588 518.31M266.882 533.397L252.177 533.397M266.882 533.397L266.882 518.31M252.177 533.397L237.471 533.397M252.177 533.397L252.177 518.31M237.471 533.397L222.764 533.397M237.471 533.397L237.471 518.31M222.764 533.397L208.059 533.397M222.764 533.397L222.764 518.31M208.059 533.397L193.353 533.397M208.059 533.397L208.059 518.31M193.353 533.397L178.647 533.397M193.353 533.397L193.353 518.31M178.647 533.397L163.941 533.397M178.647 533.397L178.647 518.31M163.941 533.397L149.236 533.397M163.941 533.397L163.941 518.31M149.236 533.397L134.529 533.397M149.236 533.397L149.236 518.31M134.529 533.397L119.823 533.397M134.529 533.397L134.529 518.31M119.823 533.397L105.118 533.397M119.823 533.397L119.823 518.31M105.118 533.397L90.4116 533.397M105.118 533.397L105.118 518.31M90.4116 533.397L75.7062 533.397M90.4116 533.397L90.4116 518.31M75.7062 533.397L61 533.396M75.7062 533.397L75.7062 518.31M61 533.396L61 518.31M311 518.31L296.295 518.31L281.588 518.31M311 518.31L311 503.224M281.588 518.31L266.882 518.31M281.588 518.31L281.588 503.224M266.882 518.31L252.177 518.31M266.882 518.31L266.882 503.224M252.177 518.31L237.471 518.31M252.177 518.31L252.177 503.224M237.471 518.31L222.764 518.31M237.471 518.31L237.471 503.224M222.764 518.31L208.059 518.31M222.764 518.31L222.764 503.224M208.059 518.31L193.353 518.31M208.059 518.31L208.059 503.224M193.353 518.31L178.647 518.31M193.353 518.31L193.353 503.224M178.647 518.31L163.941 518.31M178.647 518.31L178.647 503.224M163.941 518.31L149.236 518.31M163.941 518.31L163.941 503.224M149.236 518.31L134.529 518.31M149.236 518.31L149.236 503.224M134.529 518.31L119.823 518.31M134.529 518.31L134.529 503.224M119.823 518.31L105.118 518.31M119.823 518.31L119.823 503.224M105.118 518.31L90.4116 518.31M105.118 518.31L105.118 503.224M90.4116 518.31L75.7062 518.31M90.4116 518.31L90.4116 503.224M75.7062 518.31L61 518.31M75.7062 518.31L75.7062 503.224M61 518.31L61 503.224M311 503.224L296.295 503.224L281.588 503.224M311 503.224L311 488.138M281.588 503.224L266.882 503.224M281.588 503.224L281.588 488.138M266.882 503.224L252.177 503.224M266.882 503.224L266.882 488.138M252.177 503.224L237.471 503.224M252.177 503.224L252.177 488.138M237.471 503.224L222.764 503.224M237.471 503.224L237.471 488.138M222.764 503.224L208.059 503.224M222.764 503.224L222.764 488.138M208.059 503.224L193.353 503.224M208.059 503.224L208.059 488.138M193.353 503.224L178.647 503.224M193.353 503.224L193.353 488.138M178.647 503.224L163.941 503.224M178.647 503.224L178.647 488.138M163.941 503.224L149.236 503.224M163.941 503.224L163.941 488.138M149.236 503.224L134.529 503.224M149.236 503.224L149.236 488.138M134.529 503.224L119.823 503.224M134.529 503.224L134.529 488.138M119.823 503.224L105.118 503.224M119.823 503.224L119.823 488.138M105.118 503.224L90.4116 503.224M105.118 503.224L105.118 488.138M90.4116 503.224L75.7062 503.224M90.4116 503.224L90.4116 488.138M75.7062 503.224L61 503.224M75.7062 503.224L75.7062 488.138M61 503.224L61 488.138M311 488.138L296.295 488.138L281.588 488.138M311 488.138L311 473.052M281.588 488.138L266.882 488.138M281.588 488.138L281.588 473.052M266.882 488.138L252.177 488.138M266.882 488.138L266.882 473.052M252.177 488.138L237.471 488.138M252.177 488.138L252.177 473.052M237.471 488.138L222.764 488.138M237.471 488.138L237.471 473.052M222.764 488.138L208.059 488.138M222.764 488.138L222.764 473.052M208.059 488.138L193.353 488.138M208.059 488.138L208.059 473.052M193.353 488.138L178.647 488.138M193.353 488.138L193.353 473.052M178.647 488.138L163.941 488.138M178.647 488.138L178.647 473.052M163.941 488.138L149.236 488.138M163.941 488.138L163.941 473.052M149.236 488.138L134.529 488.138M149.236 488.138L149.236 473.052M134.529 488.138L119.823 488.138M134.529 488.138L134.529 473.052M119.823 488.138L105.118 488.138M119.823 488.138L119.823 473.052M105.118 488.138L90.4116 488.138M105.118 488.138L105.118 473.052M90.4116 488.138L75.7062 488.138M90.4116 488.138L90.4116 473.052M75.7062 488.138L61 488.138M75.7062 488.138L75.7062 473.052M61 488.138L61 473.052M311 473.052L296.295 473.052L281.588 473.052M311 473.052L311 457.965L296.295 457.965M281.588 473.052L266.882 473.052M281.588 473.052L281.588 457.965M266.882 473.052L252.177 473.052M266.882 473.052L266.882 457.965M252.177 473.052L237.471 473.052M252.177 473.052L252.177 457.965M237.471 473.052L222.764 473.052M237.471 473.052L237.471 457.965M222.764 473.052L208.059 473.052M222.764 473.052L222.764 457.965M208.059 473.052L193.353 473.052M208.059 473.052L208.059 457.965M193.353 473.052L178.647 473.052M193.353 473.052L193.353 457.965M178.647 473.052L163.941 473.052M178.647 473.052L178.647 457.965M163.941 473.052L149.236 473.052M163.941 473.052L163.941 457.965M149.236 473.052L134.529 473.052M149.236 473.052L149.236 457.965M134.529 473.052L119.823 473.052M134.529 473.052L134.529 457.965M119.823 473.052L105.118 473.052M119.823 473.052L119.823 457.965M105.118 473.052L90.4116 473.052M105.118 473.052L105.118 457.965M90.4116 473.052L75.7062 473.052M90.4116 473.052L90.4116 457.965M75.7062 473.052L61 473.052M75.7062 473.052L75.7062 457.965M61 473.052L61 457.965L75.7062 457.965M281.588 457.965L266.882 457.965M266.882 457.965L252.177 457.965M252.177 457.965L237.471 457.965M237.471 457.965L222.764 457.965M222.764 457.965L208.059 457.965M208.059 457.965L193.353 457.965M193.353 457.965L178.647 457.965M178.647 457.965L163.941 457.965M163.941 457.965L149.236 457.965M149.236 457.965L134.529 457.965M134.529 457.965L119.823 457.965M119.823 457.965L105.118 457.965M105.118 457.965L90.4116 457.965M90.4116 457.965L75.7062 457.965" stroke="url(#paint2_radial_214_23)"/>
<defs>
<linearGradient id="paint0_linear_214_23" x1="179.028" y1="0.927734" x2="179.028" y2="639" gradientUnits="userSpaceOnUse">
<stop stop-color="white" stop-opacity="0"/>
<stop offset="1" stop-color="#FFFDF5"/>
</linearGradient>
<linearGradient id="paint1_linear_214_23" x1="179.028" y1="0.927734" x2="179.028" y2="639" gradientUnits="userSpaceOnUse">
<stop stop-color="white"/>
<stop offset="1" stop-color="#FFE0C0"/>
</linearGradient>
<radialGradient id="paint2_radial_214_23" cx="0" cy="0" r="1" gradientUnits="userSpaceOnUse" gradientTransform="translate(186 725.746) rotate(-90) scale(279.095 213.899)">
<stop stop-color="#FFE0C0"/>
<stop offset="0.804" stop-color="#FFA549" stop-opacity="0"/>
</radialGradient>
</defs>
</svg>
