<svg width="123" height="123" viewBox="0 0 123 123" fill="none" xmlns="http://www.w3.org/2000/svg">
<g filter="url(#filter0_d_118_14)">
<circle cx="61.3065" cy="57.7344" r="35" fill="url(#paint0_linear_118_14)"/>
</g>
<path d="M52.8719 46.4883C52.8719 45.929 53.0941 45.3927 53.4895 44.9972C53.885 44.6018 54.4213 44.3796 54.9806 44.3796C55.5398 44.3796 56.0762 44.6018 56.4716 44.9972C56.8671 45.3927 57.0892 45.929 57.0892 46.4883C57.0892 47.0475 56.8671 47.5839 56.4716 47.9793C56.0762 48.3748 55.5398 48.5969 54.9806 48.5969C54.4213 48.5969 53.885 48.3748 53.4895 47.9793C53.0941 47.5839 52.8719 47.0475 52.8719 46.4883ZM54.9806 42.271C54.4267 42.271 53.8783 42.3801 53.3667 42.592C52.855 42.804 52.3901 43.1146 51.9985 43.5062C51.6069 43.8978 51.2962 44.3627 51.0843 44.8744C50.8724 45.3861 50.7633 45.9345 50.7633 46.4883C50.7633 47.0421 50.8724 47.5905 51.0843 48.1022C51.2962 48.6138 51.6069 49.0787 51.9985 49.4704C52.3901 49.862 52.855 50.1726 53.3667 50.3846C53.8783 50.5965 54.4267 50.7056 54.9806 50.7056C56.0991 50.7056 57.1717 50.2613 57.9626 49.4704C58.7535 48.6795 59.1979 47.6068 59.1979 46.4883C59.1979 45.3698 58.7535 44.2971 57.9626 43.5062C57.1717 42.7153 56.0991 42.271 54.9806 42.271ZM47.2489 54.5967C47.2489 53.2219 48.3608 52.1113 49.7343 52.1113H56.4355C56.0613 52.76 55.8204 53.4769 55.727 54.22H49.7343C49.6346 54.2207 49.5392 54.2606 49.4687 54.3311C49.3982 54.4016 49.3583 54.497 49.3575 54.5967V55.0986C49.3575 55.2982 49.3617 56.5043 50.0421 57.636C50.589 58.5469 51.6545 59.5478 53.908 59.7882C53.2332 60.2381 52.7046 60.8931 52.4151 61.6649C50.3092 61.1504 49.0033 60.0019 48.2343 58.7226C47.2489 57.0821 47.2489 55.3952 47.2489 55.1014V54.5967ZM66.8874 54.22C66.7936 53.4768 66.5522 52.7599 66.1775 52.1113H72.8787C74.2536 52.1113 75.3641 53.2233 75.3641 54.5967V55.1028C75.3641 55.3657 75.3641 56.7686 74.6388 58.2461C74.079 57.8105 73.4704 57.4416 72.8253 57.1468C73.106 56.5002 73.2524 55.8034 73.2555 55.0986V54.5967C73.2548 54.497 73.2148 54.4016 73.1443 54.3311C73.0738 54.2606 72.9784 54.2207 72.8787 54.22H66.8874ZM64.707 57.4181C65.0381 56.9718 65.2776 56.4646 65.412 55.9254C65.5464 55.3863 65.5729 54.8259 65.49 54.2765C65.4071 53.7271 65.2165 53.1995 64.9291 52.724C64.6416 52.2485 64.2631 51.8344 63.8152 51.5057C63.3672 51.1769 62.8587 50.9399 62.3189 50.8083C61.7791 50.6767 61.2186 50.653 60.6696 50.7387C60.1207 50.8244 59.594 51.0177 59.12 51.3075C58.6459 51.5974 58.2338 51.978 57.9074 52.4276C57.2524 53.3297 56.9812 54.4544 57.153 55.5558C57.3249 56.6573 57.9259 57.6459 58.8246 58.3055C59.7233 58.965 60.8466 59.242 61.949 59.0757C63.0513 58.9094 64.0429 58.3134 64.707 57.4181ZM61.3374 60.5459H56.0602C54.6868 60.5459 53.5748 61.6579 53.5748 63.0313V63.5374C53.5748 63.8284 53.5748 65.5167 54.5588 67.1572C55.6033 68.8919 57.6332 70.3863 61.3065 70.3863H61.3374C60.9081 69.7155 60.5683 68.9915 60.3267 68.2326C58.0086 68.0077 56.9219 66.9927 56.3681 66.0706C55.6877 64.9389 55.6834 63.7328 55.6834 63.5332V63.0313C55.6834 62.8233 55.8521 62.6546 56.0602 62.6546H60.3407C60.5815 61.912 60.9165 61.2033 61.3374 60.5459ZM67.6324 44.3796C67.0732 44.3796 66.5368 44.6018 66.1414 44.9972C65.746 45.3927 65.5238 45.929 65.5238 46.4883C65.5238 47.0475 65.746 47.5839 66.1414 47.9793C66.5368 48.3748 67.0732 48.5969 67.6324 48.5969C68.1917 48.5969 68.728 48.3748 69.1235 47.9793C69.5189 47.5839 69.7411 47.0475 69.7411 46.4883C69.7411 45.929 69.5189 45.3927 69.1235 44.9972C68.728 44.6018 68.1917 44.3796 67.6324 44.3796ZM63.4151 46.4883C63.4151 45.3698 63.8595 44.2971 64.6504 43.5062C65.4413 42.7153 66.5139 42.271 67.6324 42.271C68.7509 42.271 69.8236 42.7153 70.6145 43.5062C71.4054 44.2971 71.8497 45.3698 71.8497 46.4883C71.8497 47.6068 71.4054 48.6795 70.6145 49.4704C69.8236 50.2613 68.7509 50.7056 67.6324 50.7056C66.5139 50.7056 65.4413 50.2613 64.6504 49.4704C63.8595 48.6795 63.4151 47.6068 63.4151 46.4883ZM59.1979 54.9229C59.1979 54.3636 59.42 53.8273 59.8155 53.4318C60.2109 53.0364 60.7473 52.8142 61.3065 52.8142C61.8657 52.8142 62.4021 53.0364 62.7975 53.4318C63.193 53.8273 63.4151 54.3636 63.4151 54.9229C63.4151 55.4821 63.193 56.0185 62.7975 56.4139C62.4021 56.8093 61.8657 57.0315 61.3065 57.0315C60.7473 57.0315 60.2109 56.8093 59.8155 56.4139C59.42 56.0185 59.1979 55.4821 59.1979 54.9229ZM69.0382 57.7344C71.0888 57.7344 73.0554 58.549 74.5053 59.999C75.9553 61.4489 76.7699 63.4155 76.7699 65.4661C76.7699 67.5167 75.9553 69.4832 74.5053 70.9332C73.0554 72.3832 71.0888 73.1978 69.0382 73.1978C66.9876 73.1978 65.021 72.3832 63.5711 70.9332C62.1211 69.4832 61.3065 67.5167 61.3065 65.4661C61.3065 63.4155 62.1211 61.4489 63.5711 59.999C65.021 58.549 66.9876 57.7344 69.0382 57.7344ZM69.7425 69.6876V66.169H73.2513C73.4377 66.169 73.6165 66.0949 73.7483 65.9631C73.8801 65.8313 73.9542 65.6525 73.9542 65.4661C73.9542 65.2797 73.8801 65.1009 73.7483 64.9691C73.6165 64.8373 73.4377 64.7632 73.2513 64.7632H69.7411V61.2488C69.7411 61.0624 69.667 60.8836 69.5352 60.7518C69.4034 60.62 69.2246 60.5459 69.0382 60.5459C68.8518 60.5459 68.673 60.62 68.5412 60.7518C68.4094 60.8836 68.3353 61.0624 68.3353 61.2488V64.7632H64.8153C64.6289 64.7632 64.4501 64.8373 64.3183 64.9691C64.1865 65.1009 64.1124 65.2797 64.1124 65.4661C64.1124 65.6525 64.1865 65.8313 64.3183 65.9631C64.4501 66.0949 64.6289 66.169 64.8153 66.169H68.3353V69.6876C68.3353 69.874 68.4094 70.0528 68.5412 70.1846C68.673 70.3164 68.8518 70.3905 69.0382 70.3905C69.2246 70.3905 69.4034 70.3164 69.5352 70.1846C69.667 70.0528 69.7425 69.874 69.7425 69.6876Z" fill="white"/>
<defs>
<filter id="filter0_d_118_14" x="0.306519" y="0.734375" width="122" height="122" filterUnits="userSpaceOnUse" color-interpolation-filters="sRGB">
<feFlood flood-opacity="0" result="BackgroundImageFix"/>
<feColorMatrix in="SourceAlpha" type="matrix" values="0 0 0 0 0 0 0 0 0 0 0 0 0 0 0 0 0 0 127 0" result="hardAlpha"/>
<feOffset dy="4"/>
<feGaussianBlur stdDeviation="13"/>
<feComposite in2="hardAlpha" operator="out"/>
<feColorMatrix type="matrix" values="0 0 0 0 0.958333 0 0 0 0 0.481122 0 0 0 0 0 0 0 0 0.63 0"/>
<feBlend mode="normal" in2="BackgroundImageFix" result="effect1_dropShadow_118_14"/>
<feBlend mode="normal" in="SourceGraphic" in2="effect1_dropShadow_118_14" result="shape"/>
</filter>
<linearGradient id="paint0_linear_118_14" x1="61.3065" y1="22.7344" x2="61.3065" y2="92.7344" gradientUnits="userSpaceOnUse">
<stop stop-color="#FDBE7F"/>
<stop offset="1" stop-color="#FF8000"/>
</linearGradient>
</defs>
</svg>
