<svg width="123" height="123" viewBox="0 0 123 123" fill="none" xmlns="http://www.w3.org/2000/svg">
<g filter="url(#filter0_d_118_6)">
<circle cx="61.9825" cy="57.0903" r="35" fill="url(#paint0_linear_118_6)"/>
</g>
<path d="M63.8451 58.4961C63.0954 57.4418 62.1057 56.7099 60.8762 56.3003C59.6466 55.8908 58.3753 55.6855 57.0623 55.6846C55.7493 55.6836 54.4781 55.8889 53.2485 56.3003C52.0189 56.7117 51.0293 57.4437 50.2795 58.4961H63.8451ZM46.5191 61.3076C46.5191 58.7538 47.5851 56.7099 49.7172 55.1757C51.8493 53.6415 54.2977 52.874 57.0623 52.8731C59.827 52.8721 62.2754 53.6397 64.4074 55.1757C66.5395 56.7117 67.6056 58.7557 67.6056 61.3076H46.5191ZM46.5191 66.9307V64.1192H67.6056V66.9307H46.5191ZM70.4171 72.5537V69.7422H72.3851L74.3532 50.0615H60.9282L60.5767 47.25H67.6056V41.627H70.4171V47.25H77.4459L75.1264 70.5154C75.0561 71.1011 74.7984 71.5875 74.3532 71.9746C73.9081 72.3616 73.3926 72.5547 72.8069 72.5537H70.4171ZM47.9249 72.5537C47.5266 72.5537 47.1929 72.4188 46.924 72.1489C46.655 71.879 46.52 71.5453 46.5191 71.148V69.7422H67.6056V71.148C67.6056 71.5463 67.4706 71.8804 67.2007 72.1503C66.9308 72.4202 66.5972 72.5547 66.1998 72.5537H47.9249Z" fill="white"/>
<defs>
<filter id="filter0_d_118_6" x="0.982483" y="0.090332" width="122" height="122" filterUnits="userSpaceOnUse" color-interpolation-filters="sRGB">
<feFlood flood-opacity="0" result="BackgroundImageFix"/>
<feColorMatrix in="SourceAlpha" type="matrix" values="0 0 0 0 0 0 0 0 0 0 0 0 0 0 0 0 0 0 127 0" result="hardAlpha"/>
<feOffset dy="4"/>
<feGaussianBlur stdDeviation="13"/>
<feComposite in2="hardAlpha" operator="out"/>
<feColorMatrix type="matrix" values="0 0 0 0 0.958333 0 0 0 0 0.481122 0 0 0 0 0 0 0 0 0.63 0"/>
<feBlend mode="normal" in2="BackgroundImageFix" result="effect1_dropShadow_118_6"/>
<feBlend mode="normal" in="SourceGraphic" in2="effect1_dropShadow_118_6" result="shape"/>
</filter>
<linearGradient id="paint0_linear_118_6" x1="61.9825" y1="22.0903" x2="61.9825" y2="92.0903" gradientUnits="userSpaceOnUse">
<stop stop-color="#FDBE7F"/>
<stop offset="1" stop-color="#FF8000"/>
</linearGradient>
</defs>
</svg>
