<svg width="56" height="56" viewBox="0 0 56 56" fill="none" xmlns="http://www.w3.org/2000/svg">
<g clip-path="url(#clip0_159_29)">
<path d="M55.5 27.7354C55.5 12.5476 43.1877 0.235352 28 0.235352C12.8123 0.235352 0.5 12.5476 0.5 27.7354C0.5 41.4613 10.5564 52.8383 23.7031 54.9013V35.6846H16.7207V27.7354H23.7031V21.6768C23.7031 14.7846 27.8088 10.9775 34.0904 10.9775C37.0991 10.9775 40.2461 11.5146 40.2461 11.5146V18.2822H36.7785C33.3623 18.2822 32.2969 20.4021 32.2969 22.577V27.7354H39.9238L38.7046 35.6846H32.2969V54.9013C45.4436 52.8383 55.5 41.4615 55.5 27.7354Z" fill="#1877F2"/>
<path d="M38.7046 35.6846L39.9238 27.7354H32.2969V22.577C32.2969 20.4019 33.3623 18.2822 36.7785 18.2822H40.2461V11.5146C40.2461 11.5146 37.0991 10.9775 34.0902 10.9775C27.8088 10.9775 23.7031 14.7846 23.7031 21.6768V27.7354H16.7207V35.6846H23.7031V54.9013C25.1246 55.124 26.5612 55.2357 28 55.2354C29.4388 55.2357 30.8754 55.124 32.2969 54.9013V35.6846H38.7046Z" fill="white"/>
</g>
<defs>
<clipPath id="clip0_159_29">
<rect width="55" height="55" fill="white" transform="translate(0.5 0.235352)"/>
</clipPath>
</defs>
</svg>
