<svg width="56" height="56" viewBox="0 0 56 56" fill="none" xmlns="http://www.w3.org/2000/svg">
<g clip-path="url(#clip0_159_24)">
<path d="M42.6094 0.235352H13.3906C6.27133 0.235352 0.5 6.00668 0.5 13.126V42.3447C0.5 49.464 6.27133 55.2354 13.3906 55.2354H42.6094C49.7287 55.2354 55.5 49.464 55.5 42.3447V13.126C55.5 6.00668 49.7287 0.235352 42.6094 0.235352Z" fill="url(#paint0_radial_159_24)"/>
<path d="M42.6094 0.235352H13.3906C6.27133 0.235352 0.5 6.00668 0.5 13.126V42.3447C0.5 49.464 6.27133 55.2354 13.3906 55.2354H42.6094C49.7287 55.2354 55.5 49.464 55.5 42.3447V13.126C55.5 6.00668 49.7287 0.235352 42.6094 0.235352Z" fill="url(#paint1_radial_159_24)"/>
<path d="M28.0019 6.25098C22.1672 6.25098 21.4348 6.27654 19.1433 6.38074C16.8561 6.48559 15.2948 6.8476 13.9288 7.37891C12.5156 7.92762 11.317 8.66174 10.1229 9.85627C8.92768 11.0506 8.19355 12.2492 7.64313 13.6618C7.11031 15.0282 6.74787 16.5901 6.64496 18.8763C6.54248 21.168 6.51562 21.9006 6.51562 27.7356C6.51562 33.5705 6.54141 34.3005 6.64539 36.5921C6.75066 38.8793 7.11268 40.4406 7.64355 41.8065C8.1927 43.2198 8.92682 44.4184 10.1213 45.6125C11.3152 46.8077 12.5138 47.5435 13.926 48.0922C15.2931 48.6235 16.8546 48.9855 19.1413 49.0904C21.4331 49.1946 22.1648 49.2202 27.9994 49.2202C33.8347 49.2202 34.5648 49.1946 36.8563 49.0904C39.1435 48.9855 40.7065 48.6235 42.0736 48.0922C43.4862 47.5435 44.683 46.8077 45.8767 45.6125C47.0719 44.4184 47.8058 43.2198 48.3564 41.8072C48.8845 40.4406 49.2472 38.8789 49.3546 36.5925C49.4575 34.301 49.4844 33.5705 49.4844 27.7356C49.4844 21.9006 49.4575 21.1684 49.3546 18.8767C49.2472 16.5895 48.8845 15.0284 48.3564 13.6624C47.8058 12.2492 47.0719 11.0506 45.8767 9.85627C44.6818 8.66131 43.4866 7.92719 42.0723 7.37912C40.7026 6.8476 39.1405 6.48537 36.8533 6.38074C34.5615 6.27654 33.8319 6.25098 27.9953 6.25098H28.0019ZM26.0746 10.1227C26.6467 10.1218 27.285 10.1227 28.0019 10.1227C33.7385 10.1227 34.4182 10.1433 36.6836 10.2462C38.7783 10.342 39.9152 10.692 40.6726 10.9861C41.6752 11.3754 42.39 11.841 43.1415 12.5932C43.8935 13.3451 44.3588 14.0612 44.7492 15.0639C45.0433 15.8201 45.3938 16.9571 45.4891 19.0518C45.5921 21.3167 45.6144 21.9969 45.6144 27.7306C45.6144 33.4644 45.5921 34.1448 45.4891 36.4094C45.3933 38.5042 45.0433 39.6411 44.7492 40.3976C44.3599 41.4003 43.8935 42.1142 43.1415 42.8657C42.3896 43.6177 41.6757 44.083 40.6726 44.4725C39.9161 44.7679 38.7783 45.1171 36.6836 45.2129C34.4187 45.3158 33.7385 45.3381 28.0019 45.3381C22.2652 45.3381 21.5852 45.3158 19.3205 45.2129C17.2258 45.1162 16.0888 44.7662 15.3309 44.4721C14.3284 44.0826 13.6121 43.6172 12.8602 42.8653C12.1082 42.1133 11.6429 41.399 11.2525 40.3959C10.9584 39.6394 10.608 38.5025 10.5126 36.4077C10.4097 34.1428 10.389 33.4627 10.389 27.7253C10.389 21.9879 10.4097 21.3113 10.5126 19.0464C10.6084 16.9517 10.9584 15.8147 11.2525 15.0574C11.642 14.0547 12.1082 13.3387 12.8604 12.5867C13.6126 11.8348 14.3284 11.3692 15.3311 10.979C16.0884 10.6836 17.2258 10.3345 19.3205 10.2383C21.3025 10.1487 22.0705 10.1218 26.0746 10.1173V10.1227ZM39.4703 13.6899C38.047 13.6899 36.8922 14.8437 36.8922 16.2672C36.8922 17.6905 38.047 18.8453 39.4703 18.8453C40.8936 18.8453 42.0484 17.6905 42.0484 16.2672C42.0484 14.8439 40.8936 13.6891 39.4703 13.6891V13.6899ZM28.0019 16.7023C21.909 16.7023 16.9688 21.6424 16.9688 27.7356C16.9688 33.8287 21.909 38.7665 28.0019 38.7665C34.0951 38.7665 39.0335 33.8287 39.0335 27.7356C39.0335 21.6426 34.0947 16.7023 28.0015 16.7023H28.0019ZM28.0019 20.574C31.957 20.574 35.1635 23.7801 35.1635 27.7356C35.1635 31.6906 31.957 34.8972 28.0019 34.8972C24.0469 34.8972 20.8405 31.6906 20.8405 27.7356C20.8405 23.7801 24.0467 20.574 28.0019 20.574Z" fill="white"/>
</g>
<defs>
<radialGradient id="paint0_radial_159_24" cx="0" cy="0" r="1" gradientUnits="userSpaceOnUse" gradientTransform="translate(15.1094 59.4714) rotate(-90) scale(54.5091 50.6978)">
<stop stop-color="#FFDD55"/>
<stop offset="0.1" stop-color="#FFDD55"/>
<stop offset="0.5" stop-color="#FF543E"/>
<stop offset="1" stop-color="#C837AB"/>
</radialGradient>
<radialGradient id="paint1_radial_159_24" cx="0" cy="0" r="1" gradientUnits="userSpaceOnUse" gradientTransform="translate(-8.71271 4.19728) rotate(78.681) scale(24.3659 100.437)">
<stop stop-color="#3771C8"/>
<stop offset="0.128" stop-color="#3771C8"/>
<stop offset="1" stop-color="#6600FF" stop-opacity="0"/>
</radialGradient>
<clipPath id="clip0_159_24">
<rect width="55" height="55" fill="white" transform="translate(0.5 0.235352)"/>
</clipPath>
</defs>
</svg>
