<svg width="996" height="389" viewBox="0 0 996 389" fill="none" xmlns="http://www.w3.org/2000/svg">
<g clip-path="url(#clip0_247_2)">
<path d="M-148.662 921.854C55.4967 921.854 221 715.49 221 460.927C221 206.364 55.4967 0 -148.662 0C-352.821 0 -518.324 206.364 -518.324 460.927C-518.324 715.49 -352.821 921.854 -148.662 921.854Z" fill="url(#paint0_linear_247_2)" fill-opacity="0.05"/>
<path d="M220.5 460.927C220.5 715.322 55.1231 921.354 -148.662 921.354C-352.448 921.354 -517.825 715.322 -517.825 460.927C-517.825 206.532 -352.448 0.5 -148.662 0.5C55.1231 0.5 220.5 206.532 220.5 460.927Z" stroke="white" stroke-opacity="0.05"/>
<path d="M-148.662 872.239C33.4766 872.239 181.129 688.089 181.129 460.927C181.129 233.766 33.4766 49.6152 -148.662 49.6152C-330.801 49.6152 -478.453 233.766 -478.453 460.927C-478.453 688.089 -330.801 872.239 -148.662 872.239Z" fill="url(#paint1_linear_247_2)" fill-opacity="0.05"/>
<path d="M180.629 460.927C180.629 687.921 33.103 871.739 -148.662 871.739C-330.427 871.739 -477.954 687.921 -477.954 460.927C-477.954 233.933 -330.427 50.1152 -148.662 50.1152C33.103 50.1152 180.629 233.933 180.629 460.927Z" stroke="white" stroke-opacity="0.05"/>
</g>
<g clip-path="url(#clip1_247_2)">
<path d="M1144.66 923.469C940.503 923.469 775 717.105 775 462.542C775 207.979 940.503 1.61523 1144.66 1.61523C1348.82 1.61523 1514.32 207.979 1514.32 462.542C1514.32 717.105 1348.82 923.469 1144.66 923.469Z" fill="url(#paint2_linear_247_2)" fill-opacity="0.05"/>
<path d="M775.5 462.542C775.5 716.937 940.877 922.969 1144.66 922.969C1348.45 922.969 1513.83 716.937 1513.83 462.542C1513.83 208.147 1348.45 2.11523 1144.66 2.11523C940.877 2.11523 775.5 208.147 775.5 462.542Z" stroke="white" stroke-opacity="0.05"/>
<path d="M1144.66 873.854C962.523 873.854 814.871 689.704 814.871 462.542C814.871 235.381 962.523 51.2305 1144.66 51.2305C1326.8 51.2305 1474.45 235.381 1474.45 462.542C1474.45 689.704 1326.8 873.854 1144.66 873.854Z" fill="url(#paint3_linear_247_2)" fill-opacity="0.05"/>
<path d="M815.371 462.542C815.371 689.536 962.897 873.354 1144.66 873.354C1326.43 873.354 1473.95 689.536 1473.95 462.542C1473.95 235.548 1326.43 51.7305 1144.66 51.7305C962.897 51.7305 815.371 235.548 815.371 462.542Z" stroke="white" stroke-opacity="0.05"/>
</g>
<defs>
<linearGradient id="paint0_linear_247_2" x1="-148.662" y1="0" x2="-148.662" y2="921.854" gradientUnits="userSpaceOnUse">
<stop stop-color="white"/>
<stop offset="0.503" stop-color="white" stop-opacity="0"/>
</linearGradient>
<linearGradient id="paint1_linear_247_2" x1="-148.662" y1="49.6152" x2="-148.662" y2="872.239" gradientUnits="userSpaceOnUse">
<stop stop-color="white"/>
<stop offset="0.503" stop-color="white" stop-opacity="0"/>
</linearGradient>
<linearGradient id="paint2_linear_247_2" x1="1144.66" y1="1.61523" x2="1144.66" y2="923.469" gradientUnits="userSpaceOnUse">
<stop stop-color="white"/>
<stop offset="0.503" stop-color="white" stop-opacity="0"/>
</linearGradient>
<linearGradient id="paint3_linear_247_2" x1="1144.66" y1="51.2305" x2="1144.66" y2="873.854" gradientUnits="userSpaceOnUse">
<stop stop-color="white"/>
<stop offset="0.503" stop-color="white" stop-opacity="0"/>
</linearGradient>
<clipPath id="clip0_247_2">
<rect width="221" height="387" fill="white"/>
</clipPath>
<clipPath id="clip1_247_2">
<rect width="221" height="387" fill="white" transform="matrix(-1 0 0 1 996 1.61523)"/>
</clipPath>
</defs>
</svg>
