<svg width="56" height="56" viewBox="0 0 56 56" fill="none" xmlns="http://www.w3.org/2000/svg">
<g clip-path="url(#clip0_159_34)">
<path d="M47.3625 47.0987H39.2133V34.3363C39.2133 31.2931 39.1589 27.3754 34.9748 27.3754C30.7304 27.3754 30.0809 30.6913 30.0809 34.1148V47.0979H21.9319V20.8534H29.755V24.44H29.8646C30.6475 23.1014 31.7789 22.0001 33.1382 21.2536C34.4974 20.507 36.0337 20.1431 37.5835 20.2005C45.8431 20.2005 47.366 25.6335 47.366 32.7014L47.3625 47.0987ZM12.7366 17.2662C10.1247 17.2666 8.00701 15.1495 8.00658 12.5377C8.00615 9.9258 10.123 7.80808 12.7349 7.80766C15.3467 7.80701 17.4644 9.92408 17.4649 12.5359C17.4651 13.7902 16.9671 14.9932 16.0803 15.8803C15.1936 16.7674 13.9908 17.2659 12.7366 17.2662ZM16.8113 47.0989H8.65347V20.8534H16.8111L16.8113 47.0989ZM51.4252 0.239355H4.55855C2.34351 0.214433 0.527009 1.98883 0.499939 4.20387V51.266C0.52615 53.4821 2.34244 55.2583 4.55834 55.2351H51.4252C53.6458 55.2626 55.4692 53.4864 55.4999 51.266V4.20021C55.4684 1.98088 53.6448 0.206698 51.4252 0.235702" fill="#0A66C2"/>
</g>
<defs>
<clipPath id="clip0_159_34">
<rect width="55" height="55" fill="white" transform="translate(0.5 0.235352)"/>
</clipPath>
</defs>
</svg>
