<svg width="26" height="29" viewBox="0 0 26 29" fill="none" xmlns="http://www.w3.org/2000/svg">
<path d="M24.4428 12.2554L19.6548 9.48999L14.7531 14.3917L19.6545 19.2931L24.459 16.5185C25.2083 16.0634 25.6553 15.2682 25.6553 14.3917C25.6553 13.5153 25.2079 12.7201 24.4428 12.2554Z" fill="#FFCE00"/>
<path d="M14.7531 14.3918L1.40173 0.944336C1.16512 1.17874 0.977334 1.45772 0.849219 1.76514C0.721104 2.07257 0.655205 2.40235 0.655335 2.7354V26.0072C0.655335 26.7038 0.937353 27.3339 1.40173 27.7987L14.7531 14.3918Z" fill="url(#paint0_linear_25_23)"/>
<path d="M14.7531 14.3917L19.6548 9.48999L19.6626 9.48222L13.0949 5.70076L4.43714 0.612413C3.65753 0.131426 2.71217 0.114816 1.91594 0.562582C1.73358 0.6785 1.56748 0.794771 1.40173 0.943908L14.7531 14.3917Z" fill="#00F076"/>
<path d="M1.40173 27.7983C1.56748 27.9475 1.73358 28.0637 1.91594 28.1797C2.31388 28.3952 2.72878 28.5115 3.14332 28.5115C3.59109 28.5115 4.02225 28.379 4.42053 28.1468L13.0946 23.0828L19.6623 19.3014L19.6545 19.2936L14.7531 14.3918L1.40173 27.7983Z" fill="#F63448"/>
<defs>
<linearGradient id="paint0_linear_25_23" x1="-5.31159" y1="21.085" x2="8.1154" y2="7.65765" gradientUnits="userSpaceOnUse">
<stop stop-color="#00E2FF"/>
<stop offset="1" stop-color="#00C5FF"/>
</linearGradient>
</defs>
</svg>
