<svg width="167" height="167" viewBox="0 0 167 167" fill="none" xmlns="http://www.w3.org/2000/svg">
<g filter="url(#filter0_d_116_4)">
<circle cx="83.1928" cy="79.9211" r="57.0568" fill="url(#paint0_linear_116_4)"/>
</g>
<path d="M90.0248 85.0385C90.4257 85.549 90.7037 86.145 90.837 86.7802C90.9704 87.4155 90.9557 88.0729 90.7939 88.7016L88.1771 99.0141C87.9361 99.9483 87.3901 100.775 86.6258 101.364C85.8614 101.953 84.9224 102.27 83.9576 102.265H82.4279C81.4631 102.27 80.5241 101.953 79.7598 101.364C78.9954 100.775 78.4495 99.9483 78.2084 99.0141L75.5916 88.7016C75.4299 88.0729 75.4151 87.4155 75.5485 86.7802C75.6819 86.145 75.9598 85.549 76.3607 85.0385C76.7669 84.514 77.2881 84.0898 77.884 83.7985C78.48 83.5072 79.1349 83.3567 79.7982 83.3584H86.5658C87.2328 83.3534 87.8919 83.5023 88.4919 83.7937C89.0918 84.0852 89.6164 84.5111 90.0248 85.0385ZM89.2084 77.3428C89.2084 76.153 88.8556 74.9899 88.1946 74.0007C87.5336 73.0114 86.5941 72.2404 85.4949 71.7851C84.3956 71.3298 83.1861 71.2106 82.0192 71.4427C80.8523 71.6749 79.7804 72.2478 78.9391 73.0891C78.0978 73.9304 77.5249 75.0023 77.2927 76.1692C77.0606 77.3361 77.1798 78.5456 77.6351 79.6449C78.0904 80.7441 78.8614 81.6836 79.8507 82.3446C80.8399 83.0056 82.003 83.3584 83.1928 83.3584C84.7882 83.3584 86.3183 82.7246 87.4465 81.5965C88.5746 80.4683 89.2084 78.9382 89.2084 77.3428ZM94.7943 83.1436C94.728 83.3627 94.7062 83.5928 94.73 83.8205C94.7539 84.0482 94.823 84.2689 94.9333 84.4695C95.0436 84.6701 95.1929 84.8467 95.3724 84.9888C95.5518 85.1309 95.7579 85.2358 95.9785 85.2972C96.199 85.3586 96.4296 85.3753 96.6567 85.3463C96.8838 85.3174 97.1028 85.2434 97.3009 85.1286C97.4991 85.0139 97.6722 84.8607 97.8103 84.6781C97.9484 84.4955 98.0486 84.2871 98.1051 84.0652C98.7438 81.7675 98.8425 79.3531 98.3936 77.0109C97.9447 74.6686 96.9603 72.4619 95.5173 70.5631C94.0743 68.6643 92.2118 67.1248 90.0753 66.0651C87.9388 65.0053 85.5863 64.4538 83.2014 64.4538C80.8165 64.4538 78.4639 65.0053 76.3274 66.0651C74.1909 67.1248 72.3284 68.6643 70.8854 70.5631C69.4424 72.4619 68.458 74.6686 68.0091 77.0109C67.5602 79.3531 67.659 81.7675 68.2977 84.0652C68.4531 84.4618 68.7502 84.7865 69.1315 84.9764C69.5127 85.1664 69.9509 85.208 70.3611 85.0932C70.7712 84.9784 71.1242 84.7154 71.3515 84.3552C71.5787 83.995 71.6642 83.5632 71.5912 83.1436C71.1007 81.3579 71.0291 79.4831 71.3818 77.6652C71.7345 75.8473 72.5021 74.1353 73.6248 72.6627C74.7476 71.19 76.195 69.9964 77.8546 69.1748C79.5141 68.3531 81.341 67.9257 83.1928 67.9257C85.0446 67.9257 86.8714 68.3531 88.531 69.1748C90.1905 69.9964 91.638 71.19 92.7607 72.6627C93.8834 74.1353 94.651 75.8473 95.0037 77.6652C95.3565 79.4831 95.2848 81.3579 94.7943 83.1436ZM83.1928 57.5771C78.3993 57.5762 73.7325 59.1168 69.8818 61.9714C66.031 64.8261 63.2004 68.8435 61.8079 73.4303C60.4155 78.0171 60.535 82.9301 62.1489 87.4437C63.7628 91.9573 66.7855 95.8323 70.7705 98.4963C70.9581 98.6218 71.1686 98.7092 71.39 98.7534C71.6114 98.7976 71.8393 98.7978 72.0608 98.7539C72.2822 98.71 72.4929 98.6229 72.6807 98.4976C72.8684 98.3723 73.0297 98.2113 73.1553 98.0236C73.2808 97.836 73.3682 97.6255 73.4124 97.4041C73.4566 97.1827 73.4567 96.9548 73.4128 96.7334C73.369 96.5119 73.2819 96.3013 73.1566 96.1135C73.0313 95.9257 72.8702 95.7644 72.6826 95.6389C69.3116 93.3844 66.7548 90.1058 65.3898 86.2871C64.0247 82.4683 63.9237 78.3118 65.1017 74.4313C66.2797 70.5508 68.6743 67.1519 71.9319 64.7364C75.1895 62.3209 79.1374 61.0169 83.1928 61.0169C87.2482 61.0169 91.1961 62.3209 94.4537 64.7364C97.7112 67.1519 100.106 70.5508 101.284 74.4313C102.462 78.3118 102.361 82.4683 100.996 86.2871C99.6307 90.1058 97.074 93.3844 93.7029 95.6389C93.324 95.8924 93.0613 96.2861 92.9727 96.7334C92.8841 97.1806 92.9767 97.6447 93.2303 98.0236C93.4838 98.4025 93.8775 98.6652 94.3248 98.7539C94.772 98.8425 95.2361 98.7499 95.615 98.4963C99.6001 95.8323 102.623 91.9573 104.237 87.4437C105.851 82.9301 105.97 78.0171 104.578 73.4303C103.185 68.8435 100.355 64.8261 96.5038 61.9714C92.653 59.1168 87.9863 57.5762 83.1928 57.5771Z" fill="white"/>
<defs>
<filter id="filter0_d_116_4" x="0.135986" y="0.864258" width="166.114" height="166.114" filterUnits="userSpaceOnUse" color-interpolation-filters="sRGB">
<feFlood flood-opacity="0" result="BackgroundImageFix"/>
<feColorMatrix in="SourceAlpha" type="matrix" values="0 0 0 0 0 0 0 0 0 0 0 0 0 0 0 0 0 0 127 0" result="hardAlpha"/>
<feOffset dy="4"/>
<feGaussianBlur stdDeviation="13"/>
<feComposite in2="hardAlpha" operator="out"/>
<feColorMatrix type="matrix" values="0 0 0 0 0.958333 0 0 0 0 0.481122 0 0 0 0 0 0 0 0 0.63 0"/>
<feBlend mode="normal" in2="BackgroundImageFix" result="effect1_dropShadow_116_4"/>
<feBlend mode="normal" in="SourceGraphic" in2="effect1_dropShadow_116_4" result="shape"/>
</filter>
<linearGradient id="paint0_linear_116_4" x1="83.1928" y1="22.8643" x2="83.1928" y2="136.978" gradientUnits="userSpaceOnUse">
<stop stop-color="#FDBE7F"/>
<stop offset="1" stop-color="#FF8000"/>
</linearGradient>
</defs>
</svg>
