<svg width="167" height="167" viewBox="0 0 167 167" fill="none" xmlns="http://www.w3.org/2000/svg">
<g filter="url(#filter0_d_121_90)">
<circle cx="83.1928" cy="79.4567" r="57.0568" fill="url(#paint0_linear_121_90)"/>
</g>
<path fill-rule="evenodd" clip-rule="evenodd" d="M69.4428 58.832C67.6194 58.832 65.8707 59.5564 64.5814 60.8457C63.2921 62.135 62.5678 63.8837 62.5678 65.707V93.207C62.5678 95.0304 63.2921 96.7791 64.5814 98.0684C65.8707 99.3577 67.6194 100.082 69.4428 100.082H96.9428C98.7661 100.082 100.515 99.3577 101.804 98.0684C103.093 96.7791 103.818 95.0304 103.818 93.207V81.7487C103.818 81.1409 103.576 80.558 103.147 80.1282C102.717 79.6985 102.134 79.457 101.526 79.457C100.918 79.457 100.335 79.6985 99.9057 80.1282C99.4759 80.558 99.2344 81.1409 99.2344 81.7487V93.207C99.2344 93.8148 98.993 94.3977 98.5632 94.8275C98.1335 95.2573 97.5506 95.4987 96.9428 95.4987H69.4428C68.835 95.4987 68.2521 95.2573 67.8223 94.8275C67.3926 94.3977 67.1511 93.8148 67.1511 93.207V65.707C67.1511 65.0992 67.3926 64.5163 67.8223 64.0866C68.2521 63.6568 68.835 63.4154 69.4428 63.4154H87.7761C88.3839 63.4154 88.9668 63.1739 89.3966 62.7442C89.8263 62.3144 90.0678 61.7315 90.0678 61.1237C90.0678 60.5159 89.8263 59.933 89.3966 59.5032C88.9668 59.0735 88.3839 58.832 87.7761 58.832H69.4428ZM104.638 65.8102C105.166 65.5097 105.553 65.012 105.714 64.4263C105.876 63.8406 105.798 63.2148 105.498 62.6866C105.193 62.1626 104.695 61.779 104.11 61.6183C103.526 61.4576 102.902 61.5326 102.372 61.8272C101.563 62.2856 100.781 62.7989 100.011 63.3168C98.0587 64.6302 96.1747 66.043 94.3669 67.5495C90.604 70.6799 86.0849 75.0891 82.3609 80.6533C81.2031 79.1287 79.8589 77.7553 78.3597 76.5649C77.3811 75.8018 76.2926 75.0524 75.1169 74.6262C74.5462 74.4168 73.9134 74.4427 73.3618 74.6982C72.8102 74.9537 72.3827 75.4179 72.1733 75.9886C71.9639 76.5593 71.9898 77.1898 72.2453 77.7414C72.5008 78.293 72.965 78.7206 73.5357 78.9299C73.593 78.9529 74.3836 79.2737 75.5432 80.1789C76.8678 81.2102 78.6965 83.0183 80.4611 86.0387C80.6641 86.3864 80.9551 86.6746 81.3049 86.874C81.6547 87.0735 82.0508 87.1773 82.4535 87.175C82.8561 87.1727 83.251 87.0643 83.5985 86.8608C83.9459 86.6573 84.2336 86.3658 84.4326 86.0158C88.0626 79.6197 93.1111 74.5574 97.298 71.0741C99.3834 69.3393 101.24 68.0124 102.564 67.1233C103.24 66.6672 103.928 66.2204 104.636 65.8124L104.638 65.8102Z" fill="white"/>
<defs>
<filter id="filter0_d_121_90" x="0.135986" y="0.399902" width="166.114" height="166.114" filterUnits="userSpaceOnUse" color-interpolation-filters="sRGB">
<feFlood flood-opacity="0" result="BackgroundImageFix"/>
<feColorMatrix in="SourceAlpha" type="matrix" values="0 0 0 0 0 0 0 0 0 0 0 0 0 0 0 0 0 0 127 0" result="hardAlpha"/>
<feOffset dy="4"/>
<feGaussianBlur stdDeviation="13"/>
<feComposite in2="hardAlpha" operator="out"/>
<feColorMatrix type="matrix" values="0 0 0 0 0.958333 0 0 0 0 0.481122 0 0 0 0 0 0 0 0 0.63 0"/>
<feBlend mode="normal" in2="BackgroundImageFix" result="effect1_dropShadow_121_90"/>
<feBlend mode="normal" in="SourceGraphic" in2="effect1_dropShadow_121_90" result="shape"/>
</filter>
<linearGradient id="paint0_linear_121_90" x1="83.1928" y1="22.3999" x2="83.1928" y2="136.513" gradientUnits="userSpaceOnUse">
<stop stop-color="#FDBE7F"/>
<stop offset="1" stop-color="#FF8000"/>
</linearGradient>
</defs>
</svg>
