<svg width="80" height="59" viewBox="0 0 80 59" fill="none" xmlns="http://www.w3.org/2000/svg">
<g filter="url(#filter0_i_99_13)">
<path fill-rule="evenodd" clip-rule="evenodd" d="M16.888 42.4208C13.993 46.4777 8.52286 50.8393 1.07574 54.4772C-0.859368 55.4219 0.00914604 58.3474 2.14996 58.0769C17.7984 56.0961 27.9387 49.2432 33.4812 39.0534C35.5382 35.2594 36.8334 31.2254 37.5228 27.1076C37.9799 24.3916 38.098 22.3536 38.098 19.9995C38.098 14.9481 36.0914 10.1036 32.5195 6.53167C28.9476 2.95979 24.1031 0.953125 19.0517 0.953125C14.0003 0.953125 9.15577 2.95979 5.58388 6.53167C2.012 10.1036 0.005336 14.9481 0.005336 19.9995C0.005336 30.5169 8.66761 39.0534 18.625 39.0534C18.0994 40.4933 17.9737 40.9009 16.888 42.4208ZM58.79 42.4208C55.8949 46.4777 50.4248 50.8393 42.9777 54.4772C41.0426 55.4219 41.9111 58.3474 44.0519 58.0769C59.7004 56.0961 69.8407 49.2432 75.3832 39.0534C77.4402 35.2594 78.7353 31.2254 79.4248 27.1076C79.8819 24.3916 80 22.3536 80 19.9995C80 14.9481 77.9933 10.1036 74.4215 6.53167C70.8496 2.95979 66.0051 0.953125 60.9537 0.953125C55.9022 0.953125 51.0577 2.95979 47.4859 6.53167C43.914 10.1036 41.9073 14.9481 41.9073 19.9995C41.9073 30.5169 50.5696 39.0534 60.527 39.0534C60.0013 40.4933 59.8756 40.9009 58.79 42.4208Z" fill="url(#paint0_linear_99_13)"/>
</g>
<defs>
<filter id="filter0_i_99_13" x="0" y="0.953125" width="80" height="61.1416" filterUnits="userSpaceOnUse" color-interpolation-filters="sRGB">
<feFlood flood-opacity="0" result="BackgroundImageFix"/>
<feBlend mode="normal" in="SourceGraphic" in2="BackgroundImageFix" result="shape"/>
<feColorMatrix in="SourceAlpha" type="matrix" values="0 0 0 0 0 0 0 0 0 0 0 0 0 0 0 0 0 0 127 0" result="hardAlpha"/>
<feOffset dy="4"/>
<feGaussianBlur stdDeviation="2"/>
<feComposite in2="hardAlpha" operator="arithmetic" k2="-1" k3="1"/>
<feColorMatrix type="matrix" values="0 0 0 0 0 0 0 0 0 0 0 0 0 0 0 0 0 0 0.25 0"/>
<feBlend mode="normal" in2="shape" result="effect1_innerShadow_99_13"/>
</filter>
<linearGradient id="paint0_linear_99_13" x1="40" y1="0.953125" x2="40" y2="58.0945" gradientUnits="userSpaceOnUse">
<stop stop-color="#FF8000"/>
<stop offset="1" stop-color="#FDBE7F"/>
</linearGradient>
</defs>
</svg>
