<svg width="31" height="30" viewBox="0 0 31 30" fill="none" xmlns="http://www.w3.org/2000/svg">
<g clip-path="url(#clip0_81_34)">
<mask id="mask0_81_34" style="mask-type:luminance" maskUnits="userSpaceOnUse" x="0" y="0" width="31" height="30">
<path d="M0.5 0H30.5V30H0.5V0Z" fill="white"/>
</mask>
<g mask="url(#mask0_81_34)">
<path d="M8 4.7251H23V9.44072H20.9009C20.2017 8.71074 19.3618 8.13002 18.4319 7.73364C17.502 7.33726 16.5015 7.13344 15.4906 7.13447C14.4798 7.13344 13.4792 7.33726 12.5493 7.73364C11.6195 8.13002 10.7795 8.71074 10.0803 9.44072H8V4.7251ZM20.9806 19.7438H23V25.3501H8V19.7438H10.0006C10.7018 20.4989 11.5513 21.101 12.496 21.5124C13.4407 21.9238 14.4602 22.1355 15.4906 22.1345C16.521 22.1355 17.5405 21.9238 18.4852 21.5124C19.4299 21.101 20.2795 20.4989 20.9806 19.7438ZM13.2969 11.9954C12.8424 11.8842 12.4384 11.6238 12.1495 11.2558C11.8605 10.8878 11.7034 10.4336 11.7031 9.96572H13.85C14.5156 9.96572 15.11 10.2779 15.4925 10.7645C15.6886 10.512 15.94 10.3079 16.2273 10.1678C16.5147 10.0277 16.8303 9.95536 17.15 9.95635H19.2875C19.2876 10.4282 19.128 10.8863 18.8347 11.256C18.5415 11.6257 18.1317 11.8853 17.6722 11.9926C18.5731 12.1719 19.3753 12.6794 19.9232 13.4167C20.471 14.1541 20.7254 15.0687 20.637 15.983C20.5486 16.8973 20.1236 17.7462 19.4447 18.3649C18.7657 18.9836 17.8811 19.3281 16.9625 19.3313H14.0188C11.975 19.3313 10.3156 17.672 10.3156 15.6282C10.3162 14.7715 10.6135 13.9413 11.157 13.279C11.7005 12.6167 12.4567 12.1631 13.2969 11.9954Z" fill="#303231"/>
<path d="M3.3125 3.3C3.3125 2.42479 3.66018 1.58542 4.27905 0.966548C4.89792 0.347678 5.73729 4.36689e-08 6.6125 4.36689e-08H23.7687C24.4556 -0.000111667 25.1254 0.214106 25.6847 0.612788C26.244 1.01147 26.665 1.57474 26.889 2.22408C27.1129 2.87341 27.1287 3.57644 26.934 4.23515C26.7394 4.89386 26.344 5.47542 25.8031 5.89875V24.18C26.1977 24.4898 26.5166 24.8852 26.7359 25.3364C26.9552 25.7876 27.069 26.2827 27.0688 26.7844C27.0688 27.6596 26.7211 28.499 26.1022 29.1178C25.4833 29.7367 24.644 30.0844 23.7687 30.0844H6.6125C5.73729 30.0844 4.89792 29.7367 4.27905 29.1178C3.66018 28.499 3.3125 27.6596 3.3125 26.7844C3.31294 26.1608 3.48906 25.5499 3.82068 25.0218C4.1523 24.4937 4.626 24.0697 5.1875 23.7984V6.2775C4.62591 6.00863 4.15183 5.58637 3.82005 5.0595C3.48826 4.53263 3.31231 3.92264 3.3125 3.3ZM23.7687 1.875H6.6125C6.23457 1.875 5.87211 2.02513 5.60487 2.29237C5.33763 2.55961 5.1875 2.92207 5.1875 3.3C5.1875 3.67793 5.33763 4.04039 5.60487 4.30763C5.87211 4.57487 6.23457 4.725 6.6125 4.725H7.0625V25.35H6.6125C5.825 25.35 5.1875 25.9969 5.1875 26.7844C5.1875 27.5719 5.825 28.2094 6.6125 28.2094H23.7687C24.5562 28.2094 25.1938 27.5719 25.1938 26.7844C25.1938 26.0531 24.6453 25.4437 23.9375 25.3594V4.71563C24.2994 4.67393 24.6316 4.49523 24.8658 4.21623C25.1 3.93723 25.2185 3.57913 25.1969 3.21548C25.1753 2.85184 25.0153 2.51028 24.7496 2.26098C24.484 2.01167 24.133 1.87355 23.7687 1.875Z" fill="#303231"/>
</g>
</g>
<defs>
<clipPath id="clip0_81_34">
<rect width="30" height="30" fill="white" transform="translate(0.5)"/>
</clipPath>
</defs>
</svg>
