<svg width="30" height="30" viewBox="0 0 30 30" fill="none" xmlns="http://www.w3.org/2000/svg">
<path opacity="0.2" d="M20.625 9.375V20.625H9.375V9.375H20.625Z" fill="#303231"/>
<path d="M26.25 4.6875V9.375C26.25 9.62364 26.1512 9.8621 25.9754 10.0379C25.7996 10.2137 25.5611 10.3125 25.3125 10.3125C25.0639 10.3125 24.8254 10.2137 24.6496 10.0379C24.4738 9.8621 24.375 9.62364 24.375 9.375V5.625H20.625C20.3764 5.625 20.1379 5.52623 19.9621 5.35041C19.7863 5.1746 19.6875 4.93614 19.6875 4.6875C19.6875 4.43886 19.7863 4.2004 19.9621 4.02459C20.1379 3.84877 20.3764 3.75 20.625 3.75H25.3125C25.5611 3.75 25.7996 3.84877 25.9754 4.02459C26.1512 4.2004 26.25 4.43886 26.25 4.6875ZM9.375 24.375H5.625V20.625C5.625 20.3764 5.52623 20.1379 5.35041 19.9621C5.1746 19.7863 4.93614 19.6875 4.6875 19.6875C4.43886 19.6875 4.2004 19.7863 4.02459 19.9621C3.84877 20.1379 3.75 20.3764 3.75 20.625V25.3125C3.75 25.5611 3.84877 25.7996 4.02459 25.9754C4.2004 26.1512 4.43886 26.25 4.6875 26.25H9.375C9.62364 26.25 9.8621 26.1512 10.0379 25.9754C10.2137 25.7996 10.3125 25.5611 10.3125 25.3125C10.3125 25.0639 10.2137 24.8254 10.0379 24.6496C9.8621 24.4738 9.62364 24.375 9.375 24.375ZM25.3125 19.6875C25.0639 19.6875 24.8254 19.7863 24.6496 19.9621C24.4738 20.1379 24.375 20.3764 24.375 20.625V24.375H20.625C20.3764 24.375 20.1379 24.4738 19.9621 24.6496C19.7863 24.8254 19.6875 25.0639 19.6875 25.3125C19.6875 25.5611 19.7863 25.7996 19.9621 25.9754C20.1379 26.1512 20.3764 26.25 20.625 26.25H25.3125C25.5611 26.25 25.7996 26.1512 25.9754 25.9754C26.1512 25.7996 26.25 25.5611 26.25 25.3125V20.625C26.25 20.3764 26.1512 20.1379 25.9754 19.9621C25.7996 19.7863 25.5611 19.6875 25.3125 19.6875ZM4.6875 10.3125C4.93614 10.3125 5.1746 10.2137 5.35041 10.0379C5.52623 9.8621 5.625 9.62364 5.625 9.375V5.625H9.375C9.62364 5.625 9.8621 5.52623 10.0379 5.35041C10.2137 5.1746 10.3125 4.93614 10.3125 4.6875C10.3125 4.43886 10.2137 4.2004 10.0379 4.02459C9.8621 3.84877 9.62364 3.75 9.375 3.75H4.6875C4.43886 3.75 4.2004 3.84877 4.02459 4.02459C3.84877 4.2004 3.75 4.43886 3.75 4.6875V9.375C3.75 9.62364 3.84877 9.8621 4.02459 10.0379C4.2004 10.2137 4.43886 10.3125 4.6875 10.3125ZM9.375 8.4375H20.625C20.8736 8.4375 21.1121 8.53627 21.2879 8.71209C21.4637 8.8879 21.5625 9.12636 21.5625 9.375V20.625C21.5625 20.8736 21.4637 21.1121 21.2879 21.2879C21.1121 21.4637 20.8736 21.5625 20.625 21.5625H9.375C9.12636 21.5625 8.8879 21.4637 8.71209 21.2879C8.53627 21.1121 8.4375 20.8736 8.4375 20.625V9.375C8.4375 9.12636 8.53627 8.8879 8.71209 8.71209C8.8879 8.53627 9.12636 8.4375 9.375 8.4375ZM10.3125 19.6875H19.6875V10.3125H10.3125V19.6875Z" fill="#303231"/>
</svg>
