<svg width="31" height="30" viewBox="0 0 31 30" fill="none" xmlns="http://www.w3.org/2000/svg">
<path d="M19.25 2.5C21.6875 2.5 23.7554 3.34917 25.4537 5.0475C27.1521 6.74583 28.0008 8.81333 28 11.25H25.5C25.5 10.4167 25.3487 9.64083 25.0462 8.9225C24.7437 8.20417 24.3325 7.56333 23.8125 7L22.0938 9.90625C21.8854 10.2396 21.6617 10.6042 21.4225 11C21.1833 11.3958 20.9279 11.7396 20.6562 12.0312C20.3646 12.3438 20 12.5 19.5625 12.5C19.125 12.5 18.75 12.3542 18.4375 12.0625C18.125 11.7708 17.9688 11.4062 17.9688 10.9688C17.9688 10.5312 18.125 10.1562 18.4375 9.84375C18.7292 9.55208 19.0783 9.29167 19.485 9.0625C19.8917 8.83333 20.2612 8.61458 20.5938 8.40625L23.5 6.6875C22.9375 6.16667 22.2971 5.75542 21.5788 5.45375C20.8604 5.15208 20.0842 5.00083 19.25 5V2.5ZM15.5937 27.5C13.8437 27.5 12.2033 27.1667 10.6725 26.5C9.14167 25.8333 7.80833 24.9325 6.6725 23.7975C5.53667 22.6625 4.63542 21.3292 3.96875 19.7975C3.30208 18.2658 2.96875 16.625 2.96875 14.875C2.96875 11.8333 3.9375 9.15125 5.875 6.82875C7.8125 4.50625 10.2812 3.06333 13.2812 2.5C12.9062 4.5625 13.0208 6.57833 13.625 8.5475C14.2292 10.5167 15.2708 12.2404 16.75 13.7188C18.2292 15.1971 19.9533 16.2387 21.9225 16.8438C23.8917 17.4488 25.9071 17.5633 27.9688 17.1875C27.4271 20.1875 25.9896 22.6562 23.6562 24.5938C21.3229 26.5312 18.6354 27.5 15.5937 27.5ZM15.5937 25C17.4271 25 19.125 24.5417 20.6875 23.625C22.25 22.7083 23.4792 21.4479 24.375 19.8438C22.5833 19.6771 20.8854 19.2237 19.2812 18.4837C17.6771 17.7437 16.2396 16.7387 14.9687 15.4688C13.6979 14.1988 12.6875 12.7613 11.9375 11.1562C11.1875 9.55125 10.7396 7.85333 10.5938 6.0625C8.98958 6.95833 7.73458 8.19292 6.82875 9.76625C5.92292 11.3396 5.46958 13.0425 5.46875 14.875C5.46875 17.6875 6.45333 20.0783 8.4225 22.0475C10.3917 24.0167 12.7821 25.0008 15.5937 25Z" fill="#303231"/>
</svg>
